<svg width="64" height="64" version="1.1" viewBox="0 0 16.933 16.933" xmlns="http://www.w3.org/2000/svg" xmlns:xlink="http://www.w3.org/1999/xlink"><defs><linearGradient id="a" x1="-481.37" x2="-411.18" y1="87.991" y2="-4.6131" gradientTransform="matrix(.18286 0 0 .18286 382.62 -73.317)" gradientUnits="userSpaceOnUse"><stop stop-color="#730afc" offset="0"/><stop stop-color="#09d9ff" offset="1"/></linearGradient></defs><g transform="translate(-423.31 97.36)"><g transform="translate(130.77 -23.199)"><path d="m297.45-74.161c-0.26967 0-0.48676 0.2171-0.48676 0.48676v1.5476c-2e-3 0.5147-0.41744 0.92832-0.93272 0.92832h-0.86887c-0.31524 0-0.56903 0.25379-0.56903 0.56903v9.8297c0 0.31524 0.25379 0.56903 0.56903 0.56903h0.86887c0.51406 0 0.92841 0.41167 0.93272 0.92468v1.5914c0 0.26967 0.21709 0.48676 0.48676 0.48676h1.9546c0.26967 0 0.48677-0.2171 0.48677-0.48676v-1.6392c0-0.26207 0.21098-0.47305 0.47305-0.47305h1.2931c0.26207 0 0.47305 0.21098 0.47305 0.47305v1.6392c0 0.26967 0.2171 0.48676 0.48677 0.48676h1.9546c0.26966 0 0.48676-0.2171 0.48676-0.48676v-1.5834c0-0.51675 0.41607-0.93271 0.93282-0.93271h0.86619c0.31524 0 0.56903-0.25379 0.56903-0.56903v-9.8297c0-0.31524-0.25379-0.56903-0.56903-0.56903h-0.86619c-0.51675 0-0.93282-0.41596-0.93282-0.93271v-1.5432c0-0.26967-0.2171-0.48676-0.48676-0.48676h-1.9546c-0.26967 0-0.48677 0.2171-0.48677 0.48676v1.61c0 0.26207-0.21098 0.47305-0.47305 0.47305h-1.2931c-0.26207 0-0.47305-0.21098-0.47305-0.47305v-1.61c0-0.26967-0.2171-0.48676-0.48677-0.48676z" fill="url(#a)" style="paint-order:normal"/><path d="m297.23-70.914-2.6378 2.6378v7.4769c0 0.03941 4e-3 0.07783 0.0116 0.11494 8e-3 0.03711 0.0186 0.07295 0.033 0.10701 0.0144 0.03406 0.032 0.06636 0.0524 0.09662s0.0436 0.05849 0.0693 0.0842 0.0539 0.0489 0.0842 0.06931c0.0303 0.02042 0.0626 0.03802 0.0966 0.05238 0.0341 0.01437 0.0699 0.02544 0.10701 0.03299 0.0371 0.0076 0.0755 0.01157 0.11494 0.01157h0.86887c0.0552 0 0.10899 0.0057 0.16154 0.01478 4e-3 9.15e-4 9e-3 0.0011 0.0129 0.0019 0.0509 0.0096 0.10011 0.02369 0.14772 0.04114 5e-3 0.0016 9e-3 0.0032 0.0137 0.0049 0.0477 0.01835 0.0934 0.04053 0.13691 0.06609 3e-3 0.0016 6e-3 0.0034 9e-3 0.0051 0.0448 0.02698 0.0872 0.05736 0.12662 0.09127 0.19687 0.16918 0.32244 0.41884 0.3248 0.6994v1.5914c0 0.26967 0.21709 0.48676 0.48676 0.48676h1.9546c0.26968 0 0.48677-0.21709 0.48677-0.48676v-1.6392c0-0.26207 0.21098-0.47305 0.47305-0.47305h1.2931c0.26207 0 0.47305 0.21098 0.47305 0.47305v0.91943l2.4543-2.4543h-5.5757v-0.1624l3.5299-3.5299h-4.825l6.3898-6.3183z" fill="#730afc" style="paint-order:normal"/><path d="m297.91-71.198c-0.52414 0-0.9461 0.41903-0.9461 0.93952v9.0888c0 0.5205 0.42196 0.93952 0.9461 0.93952h5.2106c1.0528 0 1.9361-0.84167 1.9361-1.8871v-2.3871c0-0.4832-0.21708-0.92263-0.51578-1.2558 0.29935-0.34914 0.51578-0.80198 0.51578-1.2985v-2.1374c0-1.109-0.93482-2.0018-2.0516-2.0018zm1.3034 2.2467h3.1243c0.26857 0 0.48484 0.21466 0.48484 0.48136v1.1614c0 0.2667-0.21627 0.48136-0.48484 0.48136h-3.1243zm0 4.3708h3.1243c0.26857 0 0.48484 0.21466 0.48484 0.48136v1.1614c0 0.2667-0.21627 0.48136-0.48484 0.48136h-3.1243z" fill="#fff" style="paint-order:markers fill stroke"/></g><rect x="423.31" y="-97.36" width="16.933" height="16.933" rx=".00011534" ry=".00011534" fill="#fff" fill-opacity=".25" stop-color="#000000" stroke-linecap="round" stroke-linejoin="bevel" stroke-width=".52917" style="paint-order:stroke fill markers"/></g></svg>
